<svg width="14" height="14" viewBox="0 0 14 14" fill="none" xmlns="http://www.w3.org/2000/svg">
<path d="M5.35362 8.06499C5.00975 7.78847 4.80045 7.41271 4.80045 6.99119C4.80045 6.1467 5.64485 5.466 6.69259 5.466C7.21107 5.466 7.6883 5.63509 8.02618 5.91161" stroke="#86C9F6" stroke-width="1.07644" stroke-linecap="round" stroke-linejoin="round"/>
<path d="M8.54956 7.26161C8.41082 7.88305 7.80323 8.37346 7.03238 8.48619" stroke="#86C9F6" stroke-width="1.07644" stroke-linecap="round" stroke-linejoin="round"/>
<path d="M3.49614 9.56109C2.54707 8.96084 1.74333 8.08408 1.16086 6.99101C1.74931 5.89312 2.55844 5.01154 3.51348 4.40647C4.46254 3.80141 5.55752 3.47286 6.69257 3.47286C7.83419 3.47286 8.92857 3.80622 9.88361 4.41563" stroke="#86C9F6" stroke-width="1.07644" stroke-linecap="round" stroke-linejoin="round"/>
<path d="M11.1466 5.47523C11.5581 5.91554 11.9199 6.42377 12.2243 6.99078C11.048 9.18607 8.96924 10.5085 6.69257 10.5085C6.17647 10.5085 5.66756 10.441 5.17838 10.3095" stroke="#86C9F6" stroke-width="1.07644" stroke-linecap="round" stroke-linejoin="round"/>
<path d="M11.4094 3.19122L1.97623 10.7902" stroke="#86C9F6" stroke-width="1.07644" stroke-linecap="round" stroke-linejoin="round"/>
</svg>
