<svg width="12" height="9" viewBox="0 0 12 9" fill="none" xmlns="http://www.w3.org/2000/svg">
<path d="M5.90159 1.9936C7.94145 1.9936 9.76063 3.14001 10.6487 4.95381C9.76063 6.76761 7.94683 7.91402 5.90159 7.91402C3.85636 7.91402 2.04255 6.76761 1.15449 4.95381C2.04255 3.14001 3.86174 1.9936 5.90159 1.9936ZM5.90159 0.91716C3.3106 0.91716 1.08382 2.46881 0.0907084 4.69304C0.0166155 4.85898 0.0166156 5.04864 0.0907084 5.21459C1.08382 7.43882 3.3106 8.99046 5.90159 8.99046C8.49258 8.99046 10.7194 7.43882 11.7125 5.21459C11.7866 5.04864 11.7866 4.85898 11.7125 4.69304C10.7194 2.46881 8.49258 0.91716 5.90159 0.91716ZM5.90159 3.60826C6.64434 3.60826 7.24714 4.21107 7.24714 4.95381C7.24714 5.69656 6.64434 6.29936 5.90159 6.29936C5.15885 6.29936 4.55604 5.69656 4.55604 4.95381C4.55604 4.21107 5.15885 3.60826 5.90159 3.60826ZM5.90159 2.53182C4.56681 2.53182 3.4796 3.61903 3.4796 4.95381C3.4796 6.2886 4.56681 7.3758 5.90159 7.3758C7.23638 7.3758 8.32358 6.2886 8.32358 4.95381C8.32358 3.61903 7.23638 2.53182 5.90159 2.53182Z" fill="#86C9F6"/>
</svg>
